<svg version="1.2" xmlns="http://www.w3.org/2000/svg" viewBox="0 0 240 240" width="240" height="240">
	<style>
		.s0 { fill: #000000 } 
	</style>
	<path id="EXTRAS UNI CODE" class="s0" aria-label="EXTRAS
UNI
CODE"  d="m55.7 41v-25.6h15.5v4.9h-10v5.1h8.3v4.7h-8.3v6.1h10v4.8zm17.6 0l9.1-13.1-8.5-12.5h6.6l5.6 8.2 5.6-8.2h6.1l-8.4 12.2 9.3 13.4h-6.8l-6.2-9-6 9zm33.9 0v-20.7h-7v-4.9h19.5v4.9h-6.9v20.7zm16.4 0v-25.6q1.2 0 4.3 0 3.2 0 4.3 0 4.4 0.2 6.6 2.2 2.1 1.9 2.1 5.3 0 2.8-1.4 4.8-1.5 2-4 2.6 0.8 0.6 1.6 1.8 0.9 1.1 2.4 3.5 1.5 2.5 3.2 5.4h-6.5l-4.3-8.1q-0.7-1.2-1.3-1.5-0.5-0.4-1.7-0.4v10zm5.4-14.2h2.4q1.9 0 3-1 1.2-1 1.2-2.7 0-1.6-1-2.4-1-0.8-2.9-0.8h-2.7zm13.4 14.3l9.3-25.6h6.7l9.5 25.6h-5.7l-2.1-5.9h-10.1l-1.9 5.9zm9.2-10.6h6.8l-3.4-9.8zm25.9 11.1q-2.2 0-4.3-0.5-2-0.5-3.4-1.4l0.4-5.1q1.7 1.1 3.6 1.7 2 0.5 3.6 0.5 1.8 0 3-0.7 1.1-0.8 1.1-2.1 0-1-0.8-1.5-0.7-0.6-2.4-1.3l-0.9-0.3q-0.2-0.1-0.4-0.2-0.3-0.1-0.6-0.2-2.1-0.9-3.4-1.7-1.3-0.8-2.3-2.2-0.9-1.4-0.9-3.7 0-3.7 2.5-5.8 2.5-2.1 6.9-2.1 3.4 0 7 1.4l-0.9 5.1q-1.4-0.9-3.1-1.3-1.6-0.5-3-0.5-1.8 0-2.8 0.8-1 0.6-1 1.8 0 1.1 0.7 1.6 0.6 0.6 2.2 1.3l1.6 0.6q2.2 0.8 3.6 1.6 1.5 0.8 2.5 2.4 1.1 1.5 1.1 3.9 0 3.7-2.6 5.8-2.5 2.1-7 2.1zm-102.7 91.7q-7.6 0-13.3-3.2-5.8-3.2-9-9-3.1-5.8-3.1-13.4v-36.4h13.3v35.4q0 6.8 3.2 10.8 3.3 3.9 8.9 3.9 5.5 0 8.8-3.9 3.3-4 3.3-10.8v-35.4h13.2v36.4q0 7.6-3.2 13.4-3.1 5.8-8.8 9-5.8 3.2-13.3 3.2zm37.6-1.2v-60.8h15.5l25.2 42.6v-42.6h12.1v60.8h-15.3l-25.4-42.9v42.9zm66.8 0v-60.8h13.2v60.8zm-139.4 92.2q-14.6 0-22.8-7.9-8.2-7.8-8.2-22.1 0-9.8 3.9-17.3 3.9-7.5 11-11.5 7.1-4.1 16.4-4.1 7.6 0 14.6 2.8l-2.5 11.7q-6.2-2.8-12-2.8-8.3 0-13.1 5.5-4.9 5.3-4.9 14.4 0 9.2 5.1 14.3 5.1 5.1 14.2 5.1 5.9 0 11.5-1.9l2 11.2q-6.7 2.6-15.2 2.6zm52.1 0q-8.9 0-15.8-4-6.8-3.9-10.6-11-3.8-7.1-3.8-16.3 0-9.3 3.8-16.4 3.7-7.2 10.6-11.1 6.8-3.9 15.8-3.9 9 0 15.8 3.9 6.8 3.9 10.6 10.9 3.7 7 3.7 16.2 0 9.4-3.7 16.6-3.8 7.1-10.6 11.1-6.8 4-15.8 4zm0-11.6q7.5 0 12-5.4 4.5-5.4 4.5-14.3 0-5.9-2.1-10.3-2-4.6-5.8-7-3.7-2.4-8.6-2.4-4.8 0-8.6 2.4-3.8 2.4-5.9 7-2 4.4-2 10.3 0 5.8 2 10.3 2.1 4.5 5.9 6.9 3.7 2.5 8.6 2.5zm50.1 10.5q-6.4 0-9.6-0.1v-60.8q3.9-0.1 11.6-0.1 7.7 0 11.5 0.1 9 0.1 15.5 3.7 6.7 3.4 10.3 9.9 3.6 6.5 3.6 15.2 0 9.4-4.2 16.7-4.1 7.2-11.7 11.2-7.4 4-17.4 4.1-3.2 0.1-9.6 0.1zm3.6-11.6h5.9q9.2 0 14.5-5.4 5.3-5.4 5.3-14.8 0-8.5-4.5-13-4.5-4.6-13-4.6h-8.2zm48.9 11.5v-60.7h36.9v11.5h-23.9v12.1h19.8v11.1h-19.8v14.5h23.9v11.5z"/>
</svg>