<svg version="1.2" xmlns="http://www.w3.org/2000/svg" viewBox="0 0 240 240" width="240" height="240">
	<style>
		.s0 { fill: #000000 } 
	</style>
	<path id="EXTRAS OPEN MOJI" class="s0" aria-label="EXTRAS
OPEN
MOJI"  d="m55.7 41v-25.6h15.5v4.9h-10v5.1h8.3v4.7h-8.3v6.1h10v4.8zm17.6 0l9.1-13.1-8.5-12.5h6.6l5.6 8.2 5.6-8.2h6.1l-8.4 12.2 9.3 13.4h-6.8l-6.2-9-6 9zm33.9 0v-20.7h-7v-4.9h19.5v4.9h-6.9v20.7zm16.4 0v-25.6q1.2 0 4.3 0 3.2 0 4.3 0 4.4 0.2 6.6 2.2 2.1 1.9 2.1 5.3 0 2.8-1.4 4.8-1.5 2-4 2.6 0.8 0.6 1.6 1.8 0.9 1.1 2.4 3.5 1.5 2.5 3.2 5.4h-6.5l-4.3-8.1q-0.7-1.2-1.3-1.5-0.5-0.4-1.7-0.4v10zm5.4-14.2h2.4q1.9 0 3-1 1.2-1 1.2-2.7 0-1.6-1-2.4-1-0.8-2.9-0.8h-2.7zm13.4 14.3l9.3-25.6h6.7l9.5 25.6h-5.7l-2.1-5.9h-10.1l-1.9 5.9zm9.2-10.6h6.8l-3.4-9.8zm25.9 11.1q-2.2 0-4.3-0.5-2-0.5-3.4-1.4l0.4-5.1q1.7 1.1 3.6 1.7 2 0.5 3.6 0.5 1.8 0 3-0.7 1.1-0.8 1.1-2.1 0-1-0.8-1.5-0.7-0.6-2.4-1.3l-0.9-0.3q-0.2-0.1-0.4-0.2-0.3-0.1-0.6-0.2-2.1-0.9-3.4-1.7-1.3-0.8-2.3-2.2-0.9-1.4-0.9-3.7 0-3.7 2.5-5.8 2.5-2.1 6.9-2.1 3.4 0 7 1.4l-0.9 5.1q-1.4-0.9-3.1-1.3-1.6-0.5-3-0.5-1.8 0-2.8 0.8-1 0.6-1 1.8 0 1.1 0.7 1.6 0.6 0.6 2.2 1.3l1.6 0.6q2.2 0.8 3.6 1.6 1.5 0.8 2.5 2.4 1.1 1.5 1.1 3.9 0 3.7-2.6 5.8-2.5 2.1-7 2.1zm-138.6 91.7q-9 0-15.8-4-6.8-3.9-10.7-11-3.7-7.1-3.7-16.3 0-9.3 3.7-16.4 3.8-7.2 10.6-11.1 6.8-3.9 15.9-3.9 8.9 0 15.7 3.9 6.9 3.9 10.6 10.9 3.8 7 3.8 16.2 0 9.4-3.8 16.6-3.7 7.1-10.6 11.1-6.8 4-15.7 4zm0-11.6q7.4 0 11.9-5.4 4.6-5.4 4.6-14.3 0-5.9-2.1-10.3-2-4.6-5.9-7-3.7-2.4-8.5-2.4-4.9 0-8.7 2.4-3.7 2.4-5.8 7-2 4.4-2 10.3 0 5.8 2 10.3 2.1 4.5 5.8 6.9 3.7 2.5 8.7 2.5zm40.5 10.4v-60.8q2.7-0.1 10-0.1 7.5 0 10.2 0.1 9.4 0.2 14.7 5 5.4 4.9 5.4 13.5 0 6.1-2.7 10.8-2.7 4.7-7.8 7.2-4.9 2.6-11.2 2.6h-5.9v21.7zm12.7-32.5h5.4q4.4 0 6.9-2.5 2.5-2.6 2.5-7 0-8-8.8-8h-6zm37.3 32.5v-60.8h36.9v11.5h-23.9v12.1h19.8v11.2h-19.8v14.5h23.9v11.5zm48 0v-60.8h15.5l25.2 42.6v-42.6h12.1v60.8h-15.3l-25.3-42.9v42.9zm-124.6 92.6l-16.1-44.5-3.9 42.9h-11.7l5.7-60.8h16.4l15.5 43.6 15.1-43.6h16.4l5.6 60.8h-11.9l-4.2-42.7-16 43.3zm81-0.5q-9 0-15.8-3.9-6.9-3.9-10.7-11-3.7-7.1-3.7-16.3 0-9.3 3.7-16.5 3.8-7.1 10.6-11 6.8-3.9 15.9-3.9 8.9 0 15.7 3.9 6.9 3.8 10.6 10.9 3.8 7 3.8 16.2 0 9.4-3.8 16.6-3.7 7.1-10.6 11.1-6.8 3.9-15.7 3.9zm0-11.5q7.4 0 11.9-5.4 4.6-5.4 4.6-14.3 0-5.9-2.1-10.3-2-4.6-5.9-7-3.7-2.4-8.5-2.4-4.9 0-8.7 2.4-3.7 2.4-5.8 7-2 4.4-2 10.3 0 5.8 2 10.3 2.1 4.4 5.8 6.9 3.7 2.5 8.7 2.5zm41.6 11.7q-5.3 0-9.7-1.9l3.5-11q2.7 1.4 4.8 1.4 4.6 0 4.6-5.6v-45h12.8v46.1q0 7.4-4.4 11.7-4.3 4.3-11.6 4.3zm29.6-1.3v-60.8h13.3v60.8z"/>
</svg>