<?xml version="1.0" encoding="utf-8"?>
<svg xmlns="http://www.w3.org/2000/svg" viewBox="128.0162 381.826 1149.6849 1045.5991" width="1149.6849px" height="1045.5991px">
  <g transform="matrix(1.309870958328247, 0, 0, 1.309870958328247, 40.59981155395508, 35.754722595214844)" style="">
    <path d="M 940.671 640.794 C 942.451 650.364 970.532 779.863 841.349 920.444 C 676.482 1099.86 434.528 1064.05 380.565 1049.48 C 326.914 1035 285.421 1009.32 276.431 1002.06 C 267.041 994.474 257.771 986.854 249.231 978.304 C 192.871 921.934 161.171 847.514 162.341 767.584 C 162.481 757.804 162.251 747.184 164.471 737.604 C 166.781 727.684 165.051 722.354 157.341 715.364 C 141.491 699.154 125.341 683.884 111.421 665.804 C 94.701 644.074 53.691 600.654 70.851 570.654 C 78.991 556.424 104.051 548.834 119.301 547.834 C 140.381 546.444 161.591 542.814 182.831 541.294 C 203.891 539.794 225.051 539.694 246.161 539.234 C 255.481 539.034 264.821 539.034 274.141 538.804 C 279.061 539.184 292.061 522.564 296.211 519.194 C 358.351 468.594 433.891 431.414 512.401 414.804 C 532.861 410.474 553.591 407.774 574.331 405.244 C 583.561 404.124 592.851 404.014 602.101 403.174 C 610.641 402.254 618.171 388.614 622.841 382.544 C 647.351 350.734 676.661 323.794 705.511 296.034 C 713.671 288.174 722.841 281.464 732.441 275.454 C 747.561 266.784 766.021 258.054 782.291 270.134 C 798.431 282.104 804.941 303.294 807.901 322.254 C 814.371 363.774 820.491 405.434 825.461 447.194 C 826.471 455.664 823.741 470.724 832.081 474.424 C 840.211 478.044 847.451 483.344 854.351 488.894 C 870.051 501.494 881.881 515.814 894.561 531.194 C 918.481 560.234 934.991 603.884 940.671 640.794 Z M 891.761 625.934 C 896.591 623.054 900.291 622.324 898.561 616.364 C 896.631 609.714 894.381 602.884 891.511 596.584 C 888.121 589.134 880.111 597.694 874.791 600.844 C 868.331 604.974 861.361 608.204 854.451 611.474 C 843.721 616.554 828.231 624.094 815.971 621.684 C 799.351 618.404 815.701 594.624 820.241 587.514 C 828.131 575.174 837.251 563.664 846.991 552.744 C 850.891 548.364 859.511 542.934 855.441 537.034 C 851.731 531.664 846.411 527.034 841.611 522.664 C 830.981 512.974 818.361 504.794 805.411 498.584 C 798.441 495.234 793.651 495.944 793.511 487.564 C 793.371 479.144 793.031 470.764 792.081 462.394 C 788.391 430.134 783.821 397.954 780.291 365.684 C 778.561 349.904 773.991 277.914 745.221 304.214 C 715.771 332.134 688.231 362.354 660.091 391.594 C 646.281 405.934 631.801 419.694 618.731 434.734 C 611.731 441.494 606.321 439.424 597.071 438.734 C 587.891 438.044 570.191 438.164 562.161 443.284 C 581.501 459.184 597.691 485.244 602.701 509.744 C 608.121 528.534 604.101 573.814 574.751 555.034 C 552.331 540.684 537.131 513.414 519.491 493.914 C 509.821 483.234 500.071 472.634 490.081 462.264 C 481.691 453.564 464.781 463.384 454.541 467.094 C 457.701 475.354 466.241 483.044 471.321 490.374 C 476.351 497.894 480.861 505.334 484.881 513.454 C 494.561 532.964 497.341 552.544 497.761 574.094 C 497.901 581.504 498.091 624.834 479.241 611.414 C 463.001 602.014 454.041 579.774 442.571 565.534 C 429.931 549.854 415.791 534.684 400.871 521.154 C 394.671 515.534 388.231 506.604 380.601 502.974 C 375.591 500.584 359.271 514.754 355.031 517.644 C 353.251 518.854 336.571 529.804 339.331 531.414 C 346.821 537.614 354.941 543.024 362.321 549.384 C 378.031 562.314 395.221 577.504 404.321 596.024 C 411.001 609.614 419.681 635.754 408.271 649.294 C 394.531 661.684 375.631 634.034 368.401 625.354 C 356.771 611.384 341.061 599.264 326.291 588.754 C 318.271 583.044 310.371 577.084 302.041 571.804 C 289.811 564.044 292.101 574.984 280.481 575.224 C 269.911 575.444 259.191 573.334 248.501 573.364 C 237.461 573.384 226.421 573.644 215.381 573.974 C 193.661 574.624 172.041 576.204 150.341 577.174 C 141.481 578.814 101.211 576.594 102.431 591.124 C 103.091 599.014 110.251 604.294 114.021 610.654 C 120.411 620.004 127.001 629.214 133.921 638.194 C 146.111 654.014 159.381 668.844 172.721 683.694 C 178.991 690.674 185.041 697.824 191.341 704.774 C 195.891 709.804 207.571 718.384 205.881 725.994 C 196.451 768.344 195.521 811.284 209.631 852.864 C 212.861 862.364 216.581 871.964 220.731 881.084 C 222.351 884.644 224.371 888.004 226.291 891.414 C 230.351 897.394 234.151 895.164 240.811 894.414 C 263.421 891.874 286.201 891.254 308.941 891.474 C 317.291 891.554 326.551 890.734 333.701 895.974 C 340.711 901.464 328.461 909.814 324.701 912.654 C 308.461 926.594 288.301 934.734 271.361 947.524 C 275.591 954.344 300.221 980.254 308.121 972.744 C 320.691 960.814 335.641 951.374 351.041 943.454 C 358.101 939.824 366.851 934.904 375.101 937.384 C 382.121 940.764 378.701 953.374 377.901 959.034 C 376.501 969.054 372.531 979.204 368.871 988.584 C 367.251 992.764 365.321 996.814 363.961 1001.09 C 361.761 1008 367.041 1007.11 372.641 1009.08 C 450.811 1036.57 539.661 1031.54 618.961 1012.1 C 693.041 993.934 758.061 954.314 811.431 900.434 C 866.081 845.244 911.411 771.104 911.561 690.994 C 897.361 692.244 882.991 692.924 868.731 692.524 C 858.811 692.244 829.751 693.184 826.521 680.094 C 823.041 669.064 842.431 657.454 849.461 652.514 C 863.171 642.904 877.401 634.514 891.761 625.934 Z"/>
    <path d=""/>
    <path fill="#FFFFFF" d="M540.0313,704.4042c0.26-0.06,1.32-0.36,3.71-1.03c-15.71,4.61-63.69,25.73-25.21,36.61 c8.33,2.36,16.02,2.57,24.61,2.65c2.9901,5.09,5,10.69,6.54,16.37c1.17,4.32,2.11,9.17,2.51,14.12c0.58,7.32-0.02,14.83-2.82,21.09 c-2.6,5.8-8.04,10.85-13.88,13.3c-5.26,2.21-12.65-0.78-16.27,3.96c-9.21,12.06,6.79,13.46,15,11.31 c12.98-3.4,21.96-10.91,27.95-22.7c4.38-8.01,1.67-18.02,0.97-27.17c-0.18-2.39-0.23-4.73,0.03-6.95 c6.02,1.15,11.71,7.59,17.24,10.33c5.34,2.25,11.19,3.17,16.97,2.91c11.9399-0.53,22.4399-6.13,32.22-12.52 c6-3.92,18.91-14.3,6.23-19.97c-5.44-1.96-19.86,12.62-24.27,15.88c-21.33,13.89-43.7401-8.15-54.89-24.39 c-5.5-8.02,5.11-20.54,8.51-28.08c6.07-11.2-15.71-8.32-20.61-6.98c0.36-0.11,0.58-0.18,0.6801-0.22 C544.6412,703.0742,540.5712,704.2441,540.0313,704.4042z M735.0912,383.5641c0.19-0.12,1.51-1.08,4.84-3.59 c-16.52,12.51-32.02,26.46-47.97,39.65c-5.11,4.23-19.18,9.25-7.31,14.08c8.81,3.58,18.26,5.64,27.37,8.28 c10.79,3.13,22.07,7.88,33.14,9.71c9.26,1.54,3.73-13.37,2.91-18.55c-1.9-12-3.41-24.16-4.7-36.25 c-0.19-1.82,0.07-19.78-2.62-17.55C741.1913,378.8342,735.4213,383.2442,735.0912,383.5641z M898.5613,616.3641 c1.73,5.96-1.97,6.69-6.8,9.57c-14.36,8.58-28.59,16.97-42.3,26.58c-7.03,4.94-26.42,16.55-22.94,27.58 c3.23,13.09,32.29,12.15,42.21,12.43c14.26,0.4,28.63-0.28,42.83-1.53c-0.15,80.11-45.48,154.25-100.13,209.44 c-53.37,53.88-118.39,93.5-192.47,111.67c-79.3,19.44-168.15,24.47-246.32-3.02c-5.6-1.97-10.88-1.08-8.68-7.99 c1.36-4.28,3.29-8.33,4.91-12.51c3.66-9.38,7.63-19.53,9.03-29.55c0.8-5.66,4.22-18.27-2.8-21.65c-8.25-2.48-17,2.44-24.06,6.07 c-15.4,7.92-30.35,17.36-42.92,29.29c-7.9,7.51-32.53-18.4-36.76-25.22c16.94-12.79,37.1-20.93,53.34-34.87 c3.76-2.84,16.01-11.19,9-16.68c-7.15-5.2401-16.41-4.42-24.76-4.5c-22.74-0.22-45.52,0.4-68.13,2.94 c-6.66,0.75-10.46,2.98-14.52-3c-1.92-3.41-3.94-6.77-5.56-10.33c-4.15-9.12-7.87-18.72-11.1-28.22 c-14.11-41.58-13.18-84.52-3.75-126.87c1.69-7.61-9.99-16.19-14.54-21.22c-6.3-6.95-12.35-14.1-18.62-21.08 c-13.34-14.85-26.61-29.68-38.8-45.5c-6.92-8.98-13.51-18.19-19.9-27.54c-3.77-6.36-10.93-11.64-11.59-19.53 c-1.22-14.53,39.05-12.31,47.91-13.95c21.7-0.97,43.32-2.55,65.04-3.2c11.04-0.33,22.08-0.59,33.12-0.61 c10.69-0.03,21.41,2.08,31.98,1.86c11.62-0.2401,9.33-11.18,21.56-3.42c8.33,5.28,16.23,11.2401,24.25,16.95 c14.77,10.51,30.48,22.63,42.11,36.6c7.23,8.68,26.13,36.33,39.87,23.94c11.41-13.54,2.73-39.6801-3.95-53.27 c-9.1-18.52-26.29-33.71-42-46.64c-7.38-6.36-15.5-11.77-22.99-17.97c-2.76-1.61,13.92-12.56,15.7-13.77 c4.24-2.89,20.56-17.06,25.57-14.67c7.63,3.63,14.07,12.56,20.27,18.18c14.92,13.53,29.06,28.7,41.7,44.38 c11.47,14.24,20.43,36.48,36.67,45.88c18.85,13.42,18.66-29.91,18.52-37.32c-0.42-21.55-3.2-41.13-12.88-60.64 c-4.02-8.12-8.53-15.56-13.56-23.08c-5.08-7.33-13.62-15.02-16.78-23.28c10.24-3.71,27.15-13.53,35.54-4.83 c9.99,10.37,19.74,20.97,29.41,31.65c17.64,19.5,32.84,46.77,55.26,61.12c29.35,18.78,33.37-26.5,27.95-45.29 c-5.0099-24.5-21.2-50.56-40.54-66.46c8.03-5.12,25.73-5.24,34.91-4.55c9.25,0.69,14.66,2.76,21.66-4 c13.07-15.04,27.55-28.8,41.36-43.14c28.14-29.24,55.68-59.46,85.13-87.38c28.77-26.3,33.34,45.69,35.07,61.47 c3.53,32.27,8.1,64.45,11.79,96.71c0.95,8.37,1.29,16.75,1.43,25.17c0.14,8.38,4.9301,7.67,11.9,11.02 c12.95,6.21,25.57,14.39,36.2,24.08c4.8,4.37,10.12,9,13.83,14.37c4.0699,5.9-4.55,11.33-8.45,15.71 c-9.74,10.92-18.86,22.43-26.75,34.77c-4.54,7.11-20.89,30.89-4.27,34.17c12.26,2.41,27.75-5.13,38.48-10.21 c6.91-3.27,13.88-6.5,20.34-10.63c5.32-3.15,13.33-11.71,16.72-4.26C894.3813,602.8842,896.6313,609.7142,898.5613,616.3641z M762.6913,592.3242c1.17-7.17,6.12-11.06,0.33-18.42c-4.48-5.69-11.71-6.47-18.33-5.18c-6.69,2.7599-6.9901,11.41-9.17,17.19 c-2.64,7.02-7.56,13.14-12.66,18.52c-10.77,11.33-26.71,21.36-42.54,23.02c-7.33,0.77-18.1299,1.69-23.61-4.43 c-4.29-4.43-11.61-7-17.54-4.38c-13.95,6.16-8.71,22.57,1.52,28.81c31.43,19.16,68.44,5.43,94.85-15.65 C747.4012,622.3342,760.1613,607.7642,762.6913,592.3242z M416.7813,771.6042c0.8-6.3701,5.08-9.15,2.27-16.09 c-3.01-7.45-10.64-10.69-18.4-8.94c3.51-0.79-3.21,0.48,0,0c-8.37,1.25-9.53,12.67-11.95,19.07c-2.72,7.18-7.62,13.2-13.02,18.63 c-10.39,10.45-28.33,21.89-43.51,22.02c-8.17,0.08-18.05,1.24-23.84-5.9c-3.56-4.48-11.5-6.13-16.48-2.55 c-12.75,9.13-6.71,23.6,4.89,30.14c30.97,15.2401,66.2,5.9,91.71-16.3C399.6812,801.9142,414.8213,787.1342,416.7813,771.6042z M223.1513,638.3641c2.45-8.13,8.52-18.78,7.78-27.46c-23.02-1.07-45.87,3.62-68.89,2.6c0,0.01,0,0.03,0,0.04 c-0.34,9.39,20.92,24.47,27.05,30.66c4.7,4.75,9.39,9.51,14.02,14.34c2.92,3.04,5.65,8.95,9.21,11.18 C217.1113,659.7142,219.9613,648.9442,223.1513,638.3641z"/>
    <path d="M763.0212,573.9042c5.79,7.36,0.84,11.25-0.33,18.42c-2.53,15.44-15.29,30.01-27.15,39.48 c-26.41,21.08-63.42,34.81-94.85,15.65c-10.23-6.24-15.47-22.65-1.52-28.81c5.93-2.62,13.25-0.05,17.54,4.38 c5.48,6.12,16.28,5.2,23.61,4.43c15.83-1.66,31.77-11.69,42.54-23.02c5.1-5.38,10.02-11.5,12.66-18.52 c2.18-5.78,2.48-14.4301,9.17-17.19C751.3113,567.4341,758.5413,568.2142,763.0212,573.9042z"/>
    <path d="M748.0712,433.1442c0.82,5.18,6.35,20.09-2.91,18.55c-11.07-1.83-22.35-6.58-33.14-9.71c-9.11-2.64-18.56-4.7-27.37-8.28 c-11.87-4.83,2.2-9.85,7.31-14.08c15.95-13.19,31.45-27.14,47.97-39.65c0.25-0.19,0.49-0.37,0.74-0.56 c0.03-0.03,0.05-0.05,0.08-0.07c2.69-2.23,2.43,15.73,2.62,17.55C744.6613,408.9842,746.1713,421.1442,748.0712,433.1442z"/>
    <path d="M735.0912,383.5641c0.33-0.32,6.1-4.73,5.66-4.22c-0.03,0.02-0.05,0.04-0.08,0.07c-0.25,0.19-0.49,0.37-0.74,0.56 C736.6013,382.4842,735.2813,383.4442,735.0912,383.5641z"/>
    <path d="M635.8313,746.7142c-5.4401-1.96-19.8601,12.62-24.27,15.88c-21.3301,13.89-43.74-8.15-54.89-24.39 c-5.5-8.02,5.11-20.54,8.51-28.08c6.0699-11.2-15.7101-8.32-20.61-6.98c-0.0901,0.02-0.17,0.05-0.25,0.07 c-0.1899,0.05-0.38,0.11-0.5801,0.16c-15.71,4.61-63.6899,25.73-25.21,36.61c8.3301,2.36,16.02,2.57,24.61,2.65 c2.9901,5.09,5,10.69,6.54,16.37c1.17,4.32,2.11,9.17,2.51,14.12c0.58,7.32-0.02,14.83-2.8199,21.09 c-2.6001,5.8-8.04,10.85-13.8801,13.3c-5.26,2.21-12.6499-0.78-16.27,3.96c-9.21,12.06,6.79,13.46,15,11.31 c12.98-3.4,21.9601-10.91,27.9501-22.7c4.38-8.01,1.67-18.02,0.97-27.17c-0.1801-2.39-0.23-4.73,0.03-6.95 c6.02,1.15,11.7101,7.59,17.24,10.33c5.34,2.25,11.1901,3.17,16.9701,2.91c11.9399-0.53,22.4399-6.13,32.22-12.52 C635.6013,762.7642,648.5112,752.3842,635.8313,746.7142z"/>
    <path d="M545.2513,702.9241c-0.1,0.04-0.32,0.11-0.6801,0.22c-0.09,0.02-0.17,0.05-0.25,0.07c-0.1899,0.05-0.3799,0.11-0.58,0.16 c-2.39,0.67-3.45,0.97-3.71,1.03C540.5712,704.2441,544.6412,703.0742,545.2513,702.9241z"/>
    <path d="M419.0513,755.5142c2.81,6.94-1.47,9.72-2.27,16.09c-1.96,15.53-17.1,30.31-28.33,40.08 c-25.51,22.2-60.74,31.54-91.71,16.3c-11.6-6.54-17.64-21.0099-4.89-30.14c4.98-3.58,12.92-1.93,16.48,2.55 c5.79,7.14,15.67,5.98,23.84,5.9c15.18-0.13,33.12-11.57,43.51-22.02c5.4-5.43,10.3-11.45,13.02-18.63 c2.42-6.4,3.58-17.82,11.95-19.07C408.4113,744.8242,416.0413,748.0641,419.0513,755.5142z"/>
    <path d="M400.6512,746.5742C397.4413,747.0541,404.1613,745.7842,400.6512,746.5742L400.6512,746.5742z"/>
    <path d="M230.9313,610.9042c0.74,8.68-5.33,19.33-7.78,27.46c-3.19,10.58-6.04,21.35-10.83,31.36c-3.56-2.23-6.29-8.14-9.21-11.18 c-4.63-4.83-9.32-9.59-14.02-14.34c-6.13-6.19-27.39-21.27-27.05-30.66c0,3.96,22.95,0.98,0-0.04 C185.0613,614.5242,207.9113,609.8342,230.9313,610.9042z"/>
    <path d="M162.0413,613.5042c22.95,1.02,0,4,0,0.04C162.0413,613.5342,162.0413,613.5142,162.0413,613.5042z"/>
  </g>
</svg>